<?xml version="1.0" encoding="UTF-8"?>
<svg width="211.67mm" height="66.441mm" version="1.1" viewBox="0 0 211.67 66.441" xmlns="http://www.w3.org/2000/svg">
	<g transform="translate(433.16 104.37)">
		<path d="m-387.59-37.998c-5.0318-0.76032-7.4729-6.4189-4.5738-10.602 0.73302-1.0578 2.0159-1.9993 3.3965-2.4929 0.70339-0.25146 0.80445-0.41164 0.7929-1.2568-7e-3 -0.53272-0.11906-8.2609-0.11906-8.2609l-1.1135-0.38872c-0.73029-0.25494-1.3982-0.76308-1.9407-1.4765l-0.82722-1.0878-0.50668 0.76962c-0.60941 0.92567-1.9396 1.8029-2.7338 1.8029-0.91027 0-1.9919-0.6794-2.6797-1.6832l-0.63248-0.92305-0.88067 1.0289c-1.5378 1.7966-3.818 1.6439-5.1203-0.34284l-0.57536-0.87773-1.1286 1.1945c-0.97744 1.0345-1.2724 1.1945-2.2019 1.1945-0.86321 0-1.2558-0.17691-2.0058-0.90389-0.51292-0.49714-1.0044-1.1303-1.0923-1.407-0.13896-0.43785-0.24321-0.38023-0.80329 0.44401-1.5199 2.2367-3.8885 2.2737-5.3887 0.0843l-0.61818-0.90218-1.1019 1.15c-0.94885 0.99028-1.2523 1.15-2.1852 1.15-1.1857 0-2.3119-0.74331-2.9595-1.9534l-0.36488-0.68178-0.62574 0.85457c-0.6813 0.93043-2.0311 1.7806-2.8271 1.7806-1.6413 0-3.3548-2.4185-4.3117-6.0854-0.59187-2.2682-0.59812-7.8535-0.0118-10.515 0.86355-3.9191 2.921-6.948 4.7195-6.948 1.0621 0 2.0918 0.62973 2.858 1.7479l0.61936 0.9039 0.7679-1.0442c1.4865-2.0213 3.3746-2.0035 5.0786 0.04795l0.87735 1.0562 0.59152-0.83071c1.4118-1.9827 3.3695-2.062 4.9264-0.19946l0.94444 1.1299 1.1412-1.1411c0.93018-0.93018 1.3205-1.1411 2.1113-1.1411 1.189 0 2.086 0.5587 2.8301 1.7627l0.56501 0.9142 0.63787-0.9387c1.4374-2.1153 3.4057-2.2275 5.0281-0.28669l0.97327 1.1643 0.94869-1.0626c0.74756-0.83728 1.1899-1.0943 2.0865-1.2123 1.0958-0.14418 1.1861-0.09956 2.4474 1.209 0.72027 0.74727 1.3096 1.254 1.3096 1.1261s0.4949-0.72747 1.0998-1.3323l1.0998-1.0998s-0.48611-10.268-0.73587-10.96c-1.137-3.1493 0.51469-6.9271 3.6512-8.3512 1.2256-0.55646 3.4572-0.6638 4.9841-0.23972 1.4174 0.39369 3.5243 2.3992 4.0992 3.902 0.57544 1.5043 0.58451 3.7934 0.0203 5.1228-0.65371 1.5403-2.1896 3.0367-3.8035 3.7056l-1.4659 0.60759s0.44612 10.938 0.53914 11.03c0.15748 0.15498 6.3094 0.38914 27.024 1.0286 47.069 1.453 77.192 0.44761 90.62-3.0244 10.106-2.6131 16.846-6.4763 25.665-14.709 3.9631-3.7001 5.5124-4.8516 6.2238-4.6258 0.36669 0.11638 0.507 0.3197 0.40467 0.58637-0.14248 0.3713-6.4862 11.931-7.9712 14.525l-0.62428 1.0906 8.357-1.6953c4.5963-0.93242 8.6881-1.8665 9.0928-2.0758 0.8323-0.4304 1.1523-0.22174 1.4443 0.94177 0.14672 0.58458 3e-3 0.781-1.1032 1.5127-0.69949 0.46249-2.641 2.048-4.3145 3.5234-6.222 5.4854-10.111 8.2079-15.478 10.837-8.4082 4.1182-16.783 6.0808-30.956 7.2547-9.9212 0.82166-15.102 0.99294-34.043 1.1255-19.42 0.13588-35.179-0.08834-60.781-0.86482-7.1874-0.21798-13.095-0.36351-13.128-0.3234-0.0328 0.04011 0.66515 16.673 1.0173 17.461 0.49339 1.1036 0.57218 3.2916 0.1706 4.7373-0.32956 1.1864-2.066 3.1994-3.2407 3.7569-1.3502 0.64071-2.8506 0.88544-4.1887 0.68325zm103.21-28.143c19.061-0.97918 27.904-2.3696 36.648-5.7621 4.6266-1.7949 9.5143-4.5435 13.461-7.5694 1.931-1.4806 8.3684-6.9991 8.274-7.0929-0.0233-0.0232-3.4555 0.6422-7.627 1.4787-7.1065 1.425-7.6089 1.4923-7.9721 1.0681-0.34945-0.40812 5.3e-4 -1.1507 3.552-7.5397 2.1668-3.8978 3.9057-7.1209 3.8642-7.1624-0.0415-0.04146-1.6796 1.4097-3.6404 3.2247-6.5075 6.024-11.586 9.5043-17.536 12.017-9.6347 4.069-20.111 5.602-43.584 6.3775-9.7681 0.3227-35.658 0.17666-50.792-0.28651-4.7294-0.14474-12.528-0.3833-17.33-0.53012-4.8022-0.14682-10.1-0.33878-11.774-0.42656l-3.0427-0.15962s0.51231 11.336 0.67835 11.438c0.15144 0.0936 3.3945 0.24859 7.2068 0.34443 3.8123 0.09584 11.277 0.30157 16.589 0.45717 28.26 0.82788 58.322 0.87865 73.025 0.12332z" fill="#039703" stroke-width=".26458"/>
	</g>
</svg>
