<?xml version="1.0" encoding="UTF-8" standalone="no"?>
<!-- Generator: Adobe Illustrator 18.0.0, SVG Export Plug-In . SVG Version: 6.00 Build 0)  -->

<svg
   version="1.1"
   id="Capa_1"
   x="0px"
   y="0px"
   viewBox="0 0 297 297"
   style="enable-background:new 0 0 297 297;"
   xml:space="preserve"
   sodipodi:docname="dhulfiqar_v1.svg"
   inkscape:version="1.2 (dc2aeda, 2022-05-15)"
   xmlns:inkscape="http://www.inkscape.org/namespaces/inkscape"
   xmlns:sodipodi="http://sodipodi.sourceforge.net/DTD/sodipodi-0.dtd"
   xmlns="http://www.w3.org/2000/svg"
   xmlns:svg="http://www.w3.org/2000/svg"><defs
   id="defs464" /><sodipodi:namedview
   id="namedview462"
   pagecolor="#ffffff"
   bordercolor="#666666"
   borderopacity="1.0"
   inkscape:showpageshadow="2"
   inkscape:pageopacity="0.0"
   inkscape:pagecheckerboard="0"
   inkscape:deskcolor="#d1d1d1"
   showgrid="false"
   inkscape:zoom="3.4579125"
   inkscape:cx="148.3554"
   inkscape:cy="148.5"
   inkscape:window-width="1390"
   inkscape:window-height="1205"
   inkscape:window-x="47"
   inkscape:window-y="23"
   inkscape:window-maximized="0"
   inkscape:current-layer="Capa_1" />
<path
   d="m 295.946,15.566 c -0.398,-3.012 -2.157,-5.673 -4.773,-7.219 -2.615,-1.546 -5.795,-1.805 -8.624,-0.701 -8.38746,12.025814 -18.75635,22.846932 -28.92438,23.908404 -9.17671,0.957985 -17.97525,-6.677112 -28.80562,-17.151404 -3.251,-0.411 -6.5,0.823 -8.665,3.289 -21.20072,63.936483 -68.11815,109.35693 -127.775,145.605 -6.076,-2.024 -12.498,-3.093 -19.088,-3.093 -16.108,0 -31.252,6.286 -42.642,17.7 -3.852,3.86 -3.852,10.111 -0.001,13.973 l 16.789,16.827 -40.548,40.638 c -3.852,3.86 -3.852,10.112 0,13.973 l 23.759,23.811 c 1.855,1.859 4.375,2.904 7.002,2.904 2.627,0 5.146,-1.045 7.002,-2.904 l 40.519,-40.606 16.76,16.796 c 1.855,1.859 4.374,2.904 7.001,2.904 2.628,0 5.146,-1.045 7.002,-2.904 13.8,-13.83 19.483,-32.755 17.072,-50.789 68.816,-32.179 117.16,-68.222 143.683,-107.156 19.523,-28.661 27.347,-58.875 23.257,-89.805 z m -262.296,250.57 -9.786,-9.808 33.548,-33.621 9.786,9.808 z m 70.417,-24.678 -55.595,-55.717 c 6.225,-3.753 13.368,-5.756 20.818,-5.756 10.817,0 20.988,4.223 28.64,11.892 13.394,13.423 15.44,33.98 6.137,49.581 z M 256.34,94.233 c -24.188,35.505 -68.998,68.865 -133.214,99.201 -2.812,-5.602 -6.531,-10.859 -11.192,-15.529 -1.796,-1.801 -3.696,-3.458 -5.669,-4.999 58.18446,-32.62921 101.69382,-72.36281 121.37,-134.258315 8.59976,0.776224 18.22604,11.784237 26.53512,11.049137 8.22935,-0.728047 14.56619,-9.136124 22.4515,-11.339451 C 276.85262,60.165371 270.44,73.535 256.34,94.233 Z"
   id="path469"
   sodipodi:nodetypes="cccscccsccccccscccscccccccccccscccccccscc" fill="param(fill) #F00"/>
<g
   id="g431">
</g>
<g
   id="g433">
</g>
<g
   id="g435">
</g>
<g
   id="g437">
</g>
<g
   id="g439">
</g>
<g
   id="g441">
</g>
<g
   id="g443">
</g>
<g
   id="g445">
</g>
<g
   id="g447">
</g>
<g
   id="g449">
</g>
<g
   id="g451">
</g>
<g
   id="g453">
</g>
<g
   id="g455">
</g>
<g
   id="g457">
</g>
<g
   id="g459">
</g>
</svg>
